<?xml version="1.0" encoding="UTF-8"?>
<svg id="_レイヤー_1" data-name="レイヤー_1" xmlns="http://www.w3.org/2000/svg" version="1.1" viewBox="0 0 477 104">
  <!-- Generator: Adobe Illustrator 30.2.1, SVG Export Plug-In . SVG Version: 2.1.1 Build 1)  -->
  <defs>
    <style>
      .st0 {
        fill: none;
      }

      .st1 {
        fill: #49b1b8;
      }

      .st2, .st3 {
        isolation: isolate;
      }

      .st3 {
        font-family: Helvetica-Light, Helvetica;
        font-size: 19.49px;
        font-weight: 300;
        letter-spacing: .33em;
      }

      .st3, .st4 {
        fill: #34383a;
      }
    </style>
  </defs>
  <g>
    <circle class="st1" cx="99.03" cy="17.33" r="10.04"/>
    <path class="st4" d="M81.84,20.1s-5.82,4.99-6.89,8.2c0,0-24.83-3.8-31,22.69-2.53,26.43,27.17,40.62,44.87,22.69,12.51-13.54,4.66-27.44,3.95-30.17,0,0,4.64-2.73,7.24-7.24,2.85,2.61,17.35,29.93-7.96,50.84-25.31,20.91-57.85,5.23-64.15-23.4-5.61-25.53,17.11-55.71,53.93-43.59v-.02Z"/>
    <circle class="st4" cx="85.24" cy="32.45" r="6.67" transform="translate(46.83 115.17) rotate(-85.93)"/>
  </g>
  <g>
    <polygon class="st4" points="128.12 35.01 137.75 35.01 151.37 51.4 165.54 35.01 174.72 35.01 174.72 68.71 165.45 68.71 165.54 47.04 154.22 60.76 149.12 60.73 137.27 46.62 137.27 68.46 128.36 68.46 128.12 35.01"/>
    <path class="st4" d="M201.52,34.32c-22.51.42-20.96,17.82-20.96,17.82-.42,14.14,12.65,17.28,20.96,17.28,6.82,0,20.37,1.07,21.62-17.79.3-18.86-21.62-17.31-21.62-17.31h0ZM213.25,56.55c-.74,3.54-5.56,6.28-11.39,6.28-3.04,0-5.81-.74-7.86-1.95-2.74-1.42-4.67-4.87-4.67-8.9,0-1.85.41-3.57,1.11-5.03.9-3.41,5.64-6.02,11.34-6.02,2.67,0,5.12.58,7.07,1.53,3.15,1.01,5.49,4.72,5.49,9.16,0,1.82-.4,3.51-1.08,4.95v-.03Z"/>
    <path class="st4" d="M196.27,51.86"/>
    <polygon class="st4" points="229 35.28 238.14 35.28 238.14 50.52 257.03 35.28 268.79 35.28 252.17 48.96 271.05 68.45 259.65 68.45 245.31 53.77 238.14 58.83 238.14 68.45 229 68.45 229 35.28"/>
    <polygon class="st4" points="275.44 35.28 284.59 35.28 284.59 50.52 303.48 35.28 315.24 35.28 298.61 48.96 317.5 68.45 306.09 68.45 291.76 53.77 284.59 58.83 284.59 68.45 275.44 68.45 275.44 35.28"/>
    <polygon class="st4" points="357.08 35.01 322.07 35.01 322.23 68.71 357.7 68.71 357.7 61.47 331.6 61.38 331.63 55.24 352.09 55.2 352.12 48.47 331.42 48.52 331.49 41.9 357.17 41.87 357.08 35.01"/>
    <line class="st0" x1="322.07" y1="48.43" x2="357.17" y2="55.29"/>
    <path class="st4" d="M432.01,35.17h-10.16l-17.7,33.37,9.5-.29,3.21-6.05h20.19l2.73,6.05h10.16l-17.94-33.08h0ZM420.01,55.84l6.77-13.24,6.77,13.24h-13.54Z"/>
    <path class="st4" d="M402.96,50.85c-1.25-16.75-14.7-15.53-14.7-15.53h-23.97v33.1h23.97s15.95-.82,14.7-17.57ZM385.39,61.69h-12v-19.42h11.7c.13.61,8.58-1.65,9.03,8.91.45,10.69-8.73,10.51-8.73,10.51h0Z"/>
  </g>
  <g class="st2">
    <text class="st3" transform="translate(128.12 93.15)"><tspan x="0" y="0">Make CX Thankable</tspan></text>
  </g>
</svg>